<svg width="21" height="17" viewBox="0 0 21 17" fill="none" xmlns="http://www.w3.org/2000/svg">
<path d="M0.699976 8.2C0.499976 10.6 1.19998 12.6 2.69998 14.4C4.19998 16.2 6.19998 17 8.59998 17H18.6C19.1 17 19.6 16.8 20 16.4C20.4 16 20.6 15.5 20.6 15V14.2C20.6 13.6 20.5 12.9 20.4 12H12.2C11.2 12 10.4 11.6 9.69998 10.9C8.99998 10.2 8.59998 9.3 8.59998 8.4C8.59998 6.8 9.29998 5.7 10.8 5.1L15.6 3C13.9 1.8 11.9 1.1 9.59998 0.999998C7.39998 0.799998 5.39998 1.5 3.59998 2.9C1.79998 4.3 0.899976 6 0.699976 8.2ZM10.6 8.4C10.6 8.8 10.8 9.2 11.1 9.5C11.4 9.8 11.8 10 12.2 10H20C19.4 7.8 18.5 6 17.2 4.6L11.6 6.9C10.9 7.1 10.6 7.6 10.6 8.4Z" fill="#C6C4C4"/>
</svg>
